<?xml version="1.0" encoding="UTF-8" standalone="no"?>
<svg width="195px" height="159px" viewBox="0 0 195 159" version="1.1" xmlns="http://www.w3.org/2000/svg" xmlns:xlink="http://www.w3.org/1999/xlink" xmlns:sketch="http://www.bohemiancoding.com/sketch/ns">
    <!-- Generator: Sketch 3.4.2 (15855) - http://www.bohemiancoding.com/sketch -->
    <title>fobo</title>
    <desc>Created with Sketch.</desc>
    <defs>
        <path id="path-1" d="M0,0.770327586 L194.370597,0.770327586 L194.370597,159 L0,159 L0,0.770327586 Z"></path>
    </defs>
    <g id="Page-1" stroke="none" stroke-width="1" fill="none" fill-rule="evenodd" sketch:type="MSPage">
        <g id="fobo" sketch:type="MSLayerGroup">
            <mask id="mask-2" sketch:name="Clip 2" fill="white">
                <use xlink:href="#path-1"></use>
            </mask>
            <g id="Clip-2"></g>
            <path d="M133.434393,57.93165 C131.467129,37.97715 113.75081,21.9236328 91.2627125,19.3905983 C93.1998792,19.157581 95.1753514,19.0287362 97.1836569,19.0287362 C120.500796,19.0287362 139.489407,35.2330293 139.694615,55.2176845 C139.02974,55.9825293 136.936615,56.9639431 133.434393,57.93165 L133.434393,57.93165 Z M122.941407,111.777822 C116.344643,118.390029 107.233393,122.48565 97.1836569,122.48565 C87.1366569,122.48565 78.0254069,118.390029 71.4259069,111.777822 L62.8235736,120.396719 C71.6174347,129.207512 83.7657681,134.657374 97.1836569,134.657374 C110.604282,134.657374 122.752615,129.207512 131.54374,120.396719 L122.941407,111.777822 Z M97.1836569,146.829098 C80.4386569,146.829098 65.2532403,140.003064 54.2540736,128.982719 L45.6435319,137.60984 C58.8343236,150.826029 77.0568236,159.000822 97.1836569,159.000822 C117.313226,159.000822 135.535726,150.826029 148.723782,137.60984 L140.11324,128.982719 C129.11681,140.003064 113.931393,146.829098 97.1836569,146.829098 L97.1836569,146.829098 Z M97.1836569,12.9428741 C70.3478792,12.9428741 48.5930597,32.01465 48.5930597,55.5439086 L48.5930597,55.5439086 C48.5930597,62.2630293 70.3478792,67.7128914 97.1836569,67.7128914 C124.022171,67.7128914 145.77699,62.2630293 145.77699,55.5439086 L145.77699,55.5439086 C145.77699,32.01465 124.022171,12.9428741 97.1836569,12.9428741 L97.1836569,12.9428741 Z M194.370324,67.7128914 C194.370324,84.5175466 150.857949,98.1422017 97.1836569,98.1422017 C43.5121014,98.1422017 -0.000273611109,84.5175466 -0.000273611109,67.7128914 C-0.000273611109,57.8960121 14.8568097,49.164719 37.9085458,43.6024603 C43.9553514,19.0972707 68.1890875,0.77115 97.1836569,0.77115 C126.180963,0.77115 150.414699,19.0972707 156.458768,43.6024603 C179.51324,49.164719 194.370324,57.8960121 194.370324,67.7128914 L194.370324,67.7128914 Z" id="Fill-1" fill="#303030" sketch:type="MSShapeGroup" mask="url(#mask-2)"></path>
        </g>
    </g>
</svg>