<?xml version="1.0" encoding="UTF-8" standalone="no"?>
<svg width="338px" height="338px" viewBox="0 0 338 338" version="1.1" xmlns="http://www.w3.org/2000/svg" xmlns:xlink="http://www.w3.org/1999/xlink" xmlns:sketch="http://www.bohemiancoding.com/sketch/ns">
    <!-- Generator: Sketch 3.4.2 (15855) - http://www.bohemiancoding.com/sketch -->
    <title>relayer-logo</title>
    <desc>Created with Sketch.</desc>
    <defs></defs>
    <g id="Page-1" stroke="none" stroke-width="1" fill="none" fill-rule="evenodd" sketch:type="MSPage">
        <g id="relayer-logo" sketch:type="MSLayerGroup" fill="#FFFFFF">
            <path d="M204.3235,282.1689 C212.1015,289.9469 212.1015,302.6749 204.3235,310.4529 L183.1105,331.6659 C175.3325,339.4449 162.6045,339.4449 154.8265,331.6659 L6.3335,183.1739 C-1.4445,175.3959 -1.4445,162.6679 6.3335,154.8899 L27.5465,133.6769 C35.3245,125.8979 48.0525,125.8979 55.8315,133.6769 L204.3235,282.1689 Z" id="Fill-1" sketch:type="MSShapeGroup"></path>
            <path d="M267.9631,218.5293 C275.7411,226.3073 275.7411,239.0353 267.9631,246.8133 L246.7501,268.0263 C238.9721,275.8053 226.2441,275.8053 218.4661,268.0263 L69.9731,119.5343 C62.1951,111.7563 62.1951,99.0283 69.9731,91.2503 L91.1861,70.0373 C98.9641,62.2583 111.6921,62.2583 119.4711,70.0373 L267.9631,218.5293 Z" id="Fill-5" sketch:type="MSShapeGroup"></path>
            <path d="M331.6028,154.8897 C339.3808,162.6677 339.3808,175.3957 331.6028,183.1737 L310.3898,204.3867 C302.6118,212.1657 289.8838,212.1657 282.1058,204.3867 L133.6128,55.8947 C125.8348,48.1167 125.8348,35.3887 133.6128,27.6107 L154.8258,6.3977 C162.6038,-1.3813 175.3318,-1.3813 183.1108,6.3977 L331.6028,154.8897 Z" id="Fill-9" sketch:type="MSShapeGroup"></path>
        </g>
    </g>
</svg>